<svg width="80" height="80" viewBox="0 0 80 80" fill="none" xmlns="http://www.w3.org/2000/svg">
<path d="M61.0258 31.9597H59.7512V25.8182C59.7501 25.7791 59.7464 25.7402 59.7399 25.7017C59.7417 25.455 59.6535 25.2161 59.4918 25.0296L49.2608 13.3567L49.2533 13.3492C49.192 13.2831 49.1225 13.2251 49.0465 13.1765L48.9788 13.1352C48.9138 13.0991 48.8451 13.0701 48.7739 13.0488L48.7175 13.03C48.6394 13.0106 48.5592 13.0005 48.4787 13H23.33C22.1813 13 21.2488 13.9332 21.2488 15.0785V31.9578H19.9742C18.331 31.9578 17 33.2871 17 34.9281V50.3768C17 52.0159 18.3329 53.3471 19.9742 53.3471H21.2488V63.9215C21.2488 65.0669 22.1813 66 23.33 66H57.67C58.8168 66 59.7512 65.0669 59.7512 63.9215V53.3471H61.0258C62.6671 53.3471 64 52.0177 64 50.3768V34.9281C64 33.289 62.669 31.9597 61.0258 31.9597ZM23.33 15.0785H47.4372V25.713C47.4372 26.2876 47.9034 26.7513 48.4787 26.7513H57.6719V31.9578H23.33V15.0785V15.0785ZM38.9001 43.5574C36.3734 42.6562 34.7058 41.2593 34.7058 39.0531C34.7058 36.464 36.8942 34.5057 40.4568 34.5057C42.1939 34.5057 43.4328 34.8436 44.3352 35.2698L43.5682 38.0167C42.5851 37.5385 41.5051 37.2925 40.4116 37.2976C38.9227 37.2976 38.2008 37.9942 38.2008 38.7602C38.2008 39.7291 39.0336 40.1553 41.0189 40.8988C43.7035 41.8901 44.9424 43.2852 44.9424 45.4256C44.9424 47.9716 43.0042 50.1327 38.8324 50.1327C37.0953 50.1327 35.3826 49.6595 34.5254 49.1864L35.2247 46.3719C36.4053 46.9739 37.7082 47.2976 39.0336 47.3182C40.6128 47.3182 41.4475 46.6629 41.4475 45.6734C41.4475 44.7272 40.7275 44.1883 38.9001 43.5574V43.5574ZM20.9912 42.521C20.9912 37.3633 24.6892 34.5038 29.2877 34.5038C31.0699 34.5038 32.4216 34.8624 33.0308 35.1572L32.3088 37.8815C31.3956 37.4986 30.4134 37.3069 29.423 37.3183C26.7177 37.3183 24.599 38.9611 24.599 42.3389C24.599 45.3561 26.4019 47.2713 29.4456 47.2713C30.5059 47.2713 31.6339 47.0704 32.3314 46.7756L32.8296 49.4774C32.2205 49.7684 30.7766 50.1308 28.9512 50.1308C23.6966 50.1327 20.9912 46.845 20.9912 42.521V42.521ZM57.67 63.362H23.33V53.3489H57.67V63.362V63.362ZM54.8914 49.9074H50.8776L46.0084 34.7291H49.774L51.6221 41.1485C52.1391 42.9716 52.6128 44.684 52.9738 46.5747H53.0415C53.4259 44.7704 53.8844 42.9827 54.4158 41.2161L56.3559 34.731H60.0069L54.8914 49.9074V49.9074Z" fill="#ED4C5C"/>
</svg>
