<svg width="80" height="80" viewBox="0 0 80 80" fill="none" xmlns="http://www.w3.org/2000/svg">
<path d="M28.7229 40.6696C28.7229 39.2157 27.7128 38.3472 25.9318 38.3472C25.2049 38.3472 24.7133 38.418 24.455 38.4868V43.1565C24.7611 43.2253 25.136 43.2502 25.6506 43.2502C27.5502 43.2502 28.7229 42.288 28.7229 40.6696Z" fill="#ED4C5C"/>
<path d="M39.7532 38.3931C38.9555 38.3931 38.439 38.4639 38.1329 38.5346V48.8801C38.439 48.9509 38.9306 48.9509 39.3764 48.9509C42.6132 48.9739 44.7251 47.1909 44.7251 43.4147C44.75 40.1301 42.8255 38.3931 39.7532 38.3931V38.3931Z" fill="#ED4C5C"/>
<path d="M60.8861 32.3155H59.5891V26.0581C59.588 26.0184 59.5842 25.9787 59.5776 25.9395C59.5797 25.6878 59.4907 25.4439 59.327 25.2527L48.9146 13.3616L48.9069 13.3539C48.7747 13.2104 48.6061 13.1053 48.4191 13.0497L48.3617 13.0306C48.2822 13.0108 48.2007 13.0005 48.1187 13H22.5286C21.3598 13 20.4109 13.9508 20.4109 15.1177V32.3155H19.1139C17.442 32.3155 16.0876 33.6699 16.0876 35.3419V51.082C16.0876 52.752 17.4439 54.1084 19.1139 54.1084H20.4109V64.8843C20.4109 66.0512 21.3598 67.002 22.5286 67.002H57.4714C58.6383 67.002 59.5891 66.0512 59.5891 64.8843V54.1084H60.8861C62.558 54.1084 63.9124 52.752 63.9124 51.082V35.3419C63.9124 33.6699 62.5561 32.3155 60.8861 32.3155V32.3155ZM22.5286 15.1177H47.059V25.9529C47.059 26.5383 47.5334 27.0108 48.1187 27.0108H57.4733V32.3155H22.5286V15.1177ZM48.5262 43.2961C48.5262 46.3225 47.4243 48.4115 45.8958 49.7008C44.2315 51.0839 41.6987 51.742 38.6016 51.742C36.7479 51.742 35.4356 51.6234 34.5422 51.5086V35.977C35.8564 35.7666 37.5686 35.6499 39.3764 35.6499C42.3778 35.6499 44.3253 36.1893 45.8499 37.339C47.4932 38.5576 48.5262 40.505 48.5262 43.2961V43.2961ZM20.9102 51.5794V35.977C22.0121 35.7895 23.5616 35.6499 25.7424 35.6499C27.9481 35.6499 29.5206 36.0726 30.5747 36.9163C31.5828 37.714 32.2619 39.0282 32.2619 40.5758C32.2619 42.1254 31.7473 43.4377 30.8081 44.3291C29.5876 45.4788 27.7817 45.9953 25.6697 45.9953C25.2011 45.9953 24.7783 45.9724 24.4512 45.9246V51.5794H20.9102ZM57.4714 64.3104H22.5286V54.1084H57.4714V64.3104ZM60.5398 38.6992H54.4622V42.3128H60.14V45.2225H54.4622V51.5794H50.8754V35.7666H60.5398V38.6992Z" fill="#ED4C5C"/>
</svg>
