<svg width="80" height="80" viewBox="0 0 80 80" fill="none" xmlns="http://www.w3.org/2000/svg">
<g clip-path="url(#clip0_1_48)">
<path fill-rule="evenodd" clip-rule="evenodd" d="M42.9732 10.4869L64.8744 17.9506C65.4094 18.1375 65.8477 18.7498 65.8348 19.317V50.4092C65.8348 50.9828 65.4674 51.7305 65.0227 52.0785L42.8057 69.3906C42.5865 69.5646 42.29 69.6549 41.9936 69.6549C41.6971 69.6549 41.407 69.5646 41.1814 69.3906L18.9645 52.0785C18.5197 51.724 18.1523 50.9764 18.1523 50.4092V19.317C18.1523 18.7498 18.5906 18.1311 19.1256 17.9506L41.0268 10.4869C41.291 10.3967 41.6455 10.3516 42 10.3516C42.3545 10.3516 42.709 10.3967 42.9732 10.4869ZM42 64.1377L61.207 49.1717V21.6115L42 15.0631L22.793 21.6115V49.1717L42 64.1377Z" fill="#ED4C5C"/>
<path fill-rule="evenodd" clip-rule="evenodd" d="M34.9682 41.0828L29.973 46.0779C29.8771 46.1748 29.8233 46.3057 29.8233 46.4421C29.8233 46.5785 29.8771 46.7093 29.973 46.8062L32.1645 48.9977C32.3643 49.1975 32.693 49.1975 32.8928 48.9977L37.8879 44.0025C41.4779 46.2648 46.2732 45.833 49.3992 42.707C53.0279 39.0783 53.0279 33.2002 49.3992 29.5715C45.7705 25.9428 39.8924 25.9428 36.2637 29.5715C33.1377 32.6975 32.7059 37.4992 34.9682 41.0828ZM46.4795 32.4912C44.4686 30.4738 41.2008 30.4738 39.1834 32.4912C37.166 34.5086 37.1725 37.7699 39.1834 39.7873C41.1943 41.8047 44.4621 41.8047 46.4795 39.7873C48.4969 37.7764 48.4969 34.5086 46.4795 32.4912Z" fill="#ED4C5C"/>
</g>
<defs>
<clipPath id="clip0_1_48">
<rect width="66" height="66" fill="white" transform="translate(1 2)"/>
</clipPath>
</defs>
</svg>
